<svg height='100px' width='100px'  fill="#3BB300" xmlns="http://www.w3.org/2000/svg" xmlns:xlink="http://www.w3.org/1999/xlink" version="1.1" x="0px" y="0px" viewBox="0 0 16 16" style="enable-background:new 0 0 16 16;" xml:space="preserve"><path d="M10,8c0,0.552-0.447,1-1,1H4C3.448,9,3,8.552,3,8l0,0c0-0.552,0.448-1,1-1h5C9.553,7,10,7.448,10,8L10,8z"></path><path d="M16,5c0,0.552-0.447,1-1,1h-3c-0.553,0-1-0.448-1-1l0,0c0-0.552,0.447-1,1-1h3C15.553,4,16,4.447,16,5L16,5z"></path><path d="M0,5c0,0.552,0.448,1,1,1h2c0.552,0,1-0.448,1-1l0,0c0-0.552-0.448-1-1-1H1C0.448,4,0,4.447,0,5L0,5z"></path><path d="M14,11c0,0.553-0.447,1-1,1h-3c-0.553,0-1-0.447-1-1l0,0c0-0.553,0.447-1,1-1h3C13.553,10,14,10.447,14,11L14,11z"></path><path d="M10,14c0,0.553-0.447,1-1,1H4c-0.552,0-1-0.447-1-1l0,0c0-0.553,0.448-1,1-1h5C9.553,13,10,13.447,10,14L10,14z"></path><path d="M10,2.5C10,2.776,9.776,3,9.5,3h-4C5.224,3,5,2.776,5,2.5l0,0C5,2.223,5.224,2,5.5,2h4C9.776,2,10,2.223,10,2.5L10,2.5z"></path><path d="M15,1.5C15,1.776,14.776,2,14.5,2h-3C11.224,2,11,1.776,11,1.5l0,0C11,1.223,11.224,1,11.5,1h3C14.776,1,15,1.223,15,1.5  L15,1.5z"></path><path d="M16,7.5C16,7.776,15.776,8,15.5,8h-3C12.224,8,12,7.776,12,7.5l0,0C12,7.224,12.224,7,12.5,7h3C15.776,7,16,7.224,16,7.5  L16,7.5z"></path><path d="M4,1.5C4,1.776,3.777,2,3.5,2h-2C1.224,2,1,1.776,1,1.5l0,0C1,1.223,1.224,1,1.5,1h2C3.777,1,4,1.223,4,1.5L4,1.5z"></path><path d="M7,10.5C7,10.776,6.777,11,6.5,11h-5C1.224,11,1,10.776,1,10.5l0,0C1,10.224,1.224,10,1.5,10h5C6.777,10,7,10.224,7,10.5  L7,10.5z"></path><path d="M9,5.5C9,5.776,8.776,6,8.5,6h-3C5.224,6,5,5.776,5,5.5l0,0C5,5.223,5.224,5,5.5,5h3C8.776,5,9,5.223,9,5.5L9,5.5z"></path></svg>